<svg id="Camada_1" data-name="Camada 1" xmlns="http://www.w3.org/2000/svg" xmlns:xlink="http://www.w3.org/1999/xlink" viewBox="0 0 752.21 243.36"><defs><style>.cls-1,.cls-10{font-family:Poppins-Bold, Poppins;font-weight:700;letter-spacing:-0.05em;}.cls-1{font-size:137.25px;}.cls-1,.cls-3,.cls-4,.cls-5,.cls-6,.cls-7,.cls-8,.cls-9{fill:none;}.cls-2{clip-path:url(#clip-path);}.cls-3,.cls-4,.cls-5,.cls-6,.cls-7,.cls-8,.cls-9{stroke-miterlimit:10;stroke-width:32.27px;}.cls-3{stroke:url(#rhema_dark_a);}.cls-4{stroke:url(#rhema_dark_a-2);}.cls-5{stroke:url(#rhema_dark_a-3);}.cls-6{stroke:url(#rhema_dark_a-4);}.cls-7{stroke:url(#rhema_dark_a-5);}.cls-8{stroke:url(#rhema_dark_a-6);}.cls-9{stroke:url(#rhema_dark_b);}.cls-10{fill:#fff;}</style><clipPath id="clip-path" transform="translate(-21.7 -254.6)"><text class="cls-1" transform="translate(25.87 414.79)">rhema</text></clipPath><linearGradient id="rhema_dark_a" x1="269.98" y1="298.16" x2="269.98" y2="254.6" gradientUnits="userSpaceOnUse"><stop offset="0" stop-color="#efeaf6"/><stop offset="1" stop-color="#ffffff"/></linearGradient><linearGradient id="rhema_dark_a-2" x1="269.98" y1="326.88" x2="269.98" y2="283.32" xlink:href="#rhema_dark_a"/><linearGradient id="rhema_dark_a-3" x1="269.98" y1="355.6" x2="269.98" y2="312.04" xlink:href="#rhema_dark_a"/><linearGradient id="rhema_dark_a-4" x1="269.98" y1="384.32" x2="269.98" y2="340.76" xlink:href="#rhema_dark_a"/><linearGradient id="rhema_dark_a-5" x1="269.98" y1="413.04" x2="269.98" y2="369.48" xlink:href="#rhema_dark_a"/><linearGradient id="rhema_dark_a-6" x1="269.98" y1="441.76" x2="269.98" y2="398.2" xlink:href="#rhema_dark_a"/><linearGradient id="rhema_dark_b" x1="21.7" y1="448.7" x2="518.26" y2="448.7" gradientUnits="userSpaceOnUse"><stop offset="0" stop-color="#ffffff"/><stop offset="1" stop-color="#d9d5e0"/></linearGradient></defs><title>rhemadata — tema escuro</title><g id="logo_tema_escuro" data-name="logo tema escuro"><g class="cls-2"><path class="cls-3" d="M21.7,270.73C71.35,270.73,71.35,282,121,282s49.65-11.29,99.3-11.29S270,282,319.63,282s49.65-11.29,99.31-11.29S468.6,282,518.26,282" transform="translate(-21.7 -254.6)"/><path class="cls-4" d="M21.7,299.45c49.65,0,49.65,11.29,99.31,11.29s49.65-11.29,99.3-11.29,49.66,11.29,99.32,11.29,49.65-11.29,99.31-11.29,49.66,11.29,99.32,11.29" transform="translate(-21.7 -254.6)"/><path class="cls-5" d="M21.7,328.17c49.65,0,49.65,11.3,99.31,11.3s49.65-11.3,99.3-11.3,49.66,11.3,99.32,11.3,49.65-11.3,99.31-11.3,49.66,11.3,99.32,11.3" transform="translate(-21.7 -254.6)"/><path class="cls-6" d="M21.7,356.89c49.65,0,49.65,11.3,99.31,11.3s49.65-11.3,99.3-11.3,49.66,11.3,99.32,11.3,49.65-11.3,99.31-11.3,49.66,11.3,99.32,11.3" transform="translate(-21.7 -254.6)"/><path class="cls-7" d="M21.7,385.61c49.65,0,49.65,11.3,99.31,11.3s49.65-11.3,99.3-11.3,49.66,11.3,99.32,11.3,49.65-11.3,99.31-11.3,49.66,11.3,99.32,11.3" transform="translate(-21.7 -254.6)"/><path class="cls-8" d="M21.7,414.34c49.65,0,49.65,11.29,99.31,11.29s49.65-11.29,99.3-11.29,49.66,11.29,99.32,11.29,49.65-11.29,99.31-11.29,49.66,11.29,99.32,11.29" transform="translate(-21.7 -254.6)"/><path class="cls-9" d="M21.7,443.06c49.65,0,49.65,11.29,99.31,11.29s49.65-11.29,99.3-11.29,49.66,11.29,99.32,11.29,49.65-11.29,99.31-11.29,49.66,11.29,99.32,11.29" transform="translate(-21.7 -254.6)"/></g><text class="cls-10" style="font-size:137.25px;" transform="translate(444.37 160.19)">data</text></g></svg>
